# xmcd
#
# Track frame offsets:
#	150
#	21387
#	45453
#	72749
#
# Disc length: 1631 seconds
#
# Revision: 0
# Processed by: cddbd v1.4PL0 Copyright (c) Steve Scherf et al.
# Submitted via: dBpowerAMP V4.0
#
DISCID=35065d04
DTITLE=Keith Urban - Raining On Sunday
DYEAR=1900
DGENRE=Country
TTITLE0=Raining On Sunday (Radio Edit)
TTITLE1=Somebody Like You
TTITLE2=The Lucky Ones
TTITLE3=DATA
EXTD=Australian Import ."Raining on Sunday" and "Somebody Like You" both appear on the CD "Golden Road". "The Lucky Ones" does not appear on any U.S. CD currently available from Keith Urban. There is also a bonus video track of "Somebody Like You".\nMy 
EXTD=name: Barb
EXTT0=
EXTT1=
EXTT2=
EXTT3=
PLAYORDER=
